<svg width="25" height="24" viewBox="0 0 25 24" fill="none" xmlns="http://www.w3.org/2000/svg">
<g clip-path="url(#clip0_205_2057)">
<path fill-rule="evenodd" clip-rule="evenodd" d="M18.8069 6.21861L13.2838 11.7416L9.49142 7.9493L6.40787 11.0328L4.99366 9.61864L9.49142 5.12088L13.2838 8.91324L17.3927 4.80439L18.8069 6.21861ZM19.9915 20.999V1.99902H3.99146V20.999H19.9915Z" fill="url(#paint0_linear_205_2057)"/>
<path fill-rule="evenodd" clip-rule="evenodd" d="M16.4048 12.999C18.8422 12.999 20.8181 14.9749 20.8181 17.4123C20.8181 18.155 20.6346 18.8548 20.3105 19.469L22.6126 21.7713L20.7633 23.6205L18.4611 21.3182C17.8471 21.6422 17.1473 21.8256 16.4048 21.8256C13.9674 21.8256 11.9915 19.8497 11.9915 17.4123C11.9915 14.9749 13.9674 12.999 16.4048 12.999ZM18.8566 17.4123C18.8566 16.0582 17.7589 14.9605 16.4048 14.9605C15.0507 14.9605 13.953 16.0582 13.953 17.4123C13.953 18.7664 15.0507 19.8641 16.4048 19.8641C17.7589 19.8641 18.8566 18.7664 18.8566 17.4123Z" fill="#76808F"/>
</g>
<defs>
<linearGradient id="paint0_linear_205_2057" x1="11.9915" y1="1.99902" x2="11.9915" y2="20.999" gradientUnits="userSpaceOnUse">
<stop stop-color="#F0B90B"/>
<stop offset="1" stop-color="#F8D33A"/>
</linearGradient>
<clipPath id="clip0_205_2057">
<rect width="24" height="24" fill="white" transform="translate(0.991455 -0.000976562)"/>
</clipPath>
</defs>
</svg>
