<svg width="19" height="19" viewBox="0 0 19 19" fill="none" xmlns="http://www.w3.org/2000/svg">
<path d="M4.7565 15.1795C6.0105 16.3915 7.656 16.999 9.3015 16.999C10.947 16.999 12.5918 16.3923 13.8473 15.1795C16.3575 12.7525 16.3575 8.81952 13.8473 6.39252L9.30225 1.99902L4.755 6.39252C2.24475 8.81877 2.24475 12.7525 4.755 15.1795H4.7565Z" fill="url(#paint0_linear_205_1969)"/>
<path d="M6.681 14.407C7.02384 14.7533 7.43199 15.0282 7.88182 15.2156C8.33164 15.4031 8.81419 15.4994 9.3015 15.499C9.78882 15.4995 10.2714 15.4031 10.7212 15.2157C11.171 15.0282 11.5792 14.7534 11.922 14.407C12.6173 13.7058 13.0075 12.7583 13.0075 11.7708C13.0075 10.7833 12.6173 9.83573 11.922 9.13452L9.3015 6.49902L6.681 9.13527C5.98548 9.83639 5.59521 10.7839 5.59521 11.7715C5.59521 12.7591 5.98548 13.7059 6.681 14.407Z" fill="#76808F"/>
<path d="M2.55151 3.12402L4.42651 4.99902L6.30151 3.12402L4.42651 1.24902L2.55151 3.12402Z" fill="url(#paint1_linear_205_1969)"/>
<path d="M15.3015 6.12402L16.4265 7.24902L17.5515 6.12402L16.4265 4.99902L15.3015 6.12402Z" fill="#76808F"/>
<path d="M1.05151 15.499L2.17651 16.624L3.30151 15.499L2.17651 14.374L1.05151 15.499Z" fill="url(#paint2_linear_205_1969)"/>
<defs>
<linearGradient id="paint0_linear_205_1969" x1="9.3015" y1="16.999" x2="9.3015" y2="1.99902" gradientUnits="userSpaceOnUse">
<stop stop-color="#F0B90B"/>
<stop offset="1" stop-color="#F8D33A"/>
</linearGradient>
<linearGradient id="paint1_linear_205_1969" x1="4.42651" y1="4.99902" x2="4.42651" y2="1.24902" gradientUnits="userSpaceOnUse">
<stop stop-color="#F0B90B"/>
<stop offset="1" stop-color="#F8D33A"/>
</linearGradient>
<linearGradient id="paint2_linear_205_1969" x1="2.17651" y1="16.624" x2="2.17651" y2="14.374" gradientUnits="userSpaceOnUse">
<stop stop-color="#F0B90B"/>
<stop offset="1" stop-color="#F8D33A"/>
</linearGradient>
</defs>
</svg>
