<svg width="19" height="19" viewBox="0 0 19 19" fill="none" xmlns="http://www.w3.org/2000/svg">
<path d="M5.24649 15.1795C6.50049 16.3915 8.14599 16.999 9.79149 16.999C11.437 16.999 13.0817 16.3923 14.3372 15.1795C16.8475 12.7525 16.8475 8.81952 14.3372 6.39252L9.79224 1.99902L5.24499 6.39252C2.73474 8.81877 2.73474 12.7525 5.24499 15.1795H5.24649Z" fill="url(#paint0_linear_205_1958)"/>
<path d="M7.17099 14.407C7.51383 14.7533 7.92198 15.0282 8.37181 15.2156C8.82163 15.4031 9.30418 15.4994 9.79149 15.499C10.2788 15.4995 10.7614 15.4031 11.2112 15.2157C11.661 15.0282 12.0692 14.7534 12.412 14.407C13.1073 13.7058 13.4975 12.7583 13.4975 11.7708C13.4975 10.7833 13.1073 9.83573 12.412 9.13452L9.79149 6.49902L7.17099 9.13527C6.47548 9.83639 6.08521 10.7839 6.08521 11.7715C6.08521 12.7591 6.47548 13.7059 7.17099 14.407Z" fill="#76808F"/>
<path d="M3.0415 3.12402L4.9165 4.99902L6.7915 3.12402L4.9165 1.24902L3.0415 3.12402Z" fill="url(#paint1_linear_205_1958)"/>
<path d="M15.7915 6.12402L16.9165 7.24902L18.0415 6.12402L16.9165 4.99902L15.7915 6.12402Z" fill="#76808F"/>
<path d="M1.5415 15.499L2.6665 16.624L3.7915 15.499L2.6665 14.374L1.5415 15.499Z" fill="url(#paint2_linear_205_1958)"/>
<defs>
<linearGradient id="paint0_linear_205_1958" x1="9.79149" y1="16.999" x2="9.79149" y2="1.99902" gradientUnits="userSpaceOnUse">
<stop stop-color="#F0B90B"/>
<stop offset="1" stop-color="#F8D33A"/>
</linearGradient>
<linearGradient id="paint1_linear_205_1958" x1="4.9165" y1="4.99902" x2="4.9165" y2="1.24902" gradientUnits="userSpaceOnUse">
<stop stop-color="#F0B90B"/>
<stop offset="1" stop-color="#F8D33A"/>
</linearGradient>
<linearGradient id="paint2_linear_205_1958" x1="2.6665" y1="16.624" x2="2.6665" y2="14.374" gradientUnits="userSpaceOnUse">
<stop stop-color="#F0B90B"/>
<stop offset="1" stop-color="#F8D33A"/>
</linearGradient>
</defs>
</svg>
