<svg width="19" height="19" viewBox="0 0 19 19" fill="none" xmlns="http://www.w3.org/2000/svg">
<path d="M5.14639 15.1795C6.40039 16.3915 8.04589 16.999 9.69139 16.999C11.3369 16.999 12.9816 16.3923 14.2371 15.1795C16.7474 12.7525 16.7474 8.81952 14.2371 6.39252L9.69214 1.99902L5.14489 6.39252C2.63464 8.81877 2.63464 12.7525 5.14489 15.1795H5.14639Z" fill="url(#paint0_linear_205_1947)"/>
<path d="M7.07089 14.407C7.41373 14.7533 7.82189 15.0282 8.27171 15.2156C8.72153 15.4031 9.20408 15.4994 9.69139 15.499C10.1787 15.4995 10.6613 15.4031 11.1111 15.2157C11.5609 15.0282 11.9691 14.7534 12.3119 14.407C13.0072 13.7058 13.3974 12.7583 13.3974 11.7708C13.3974 10.7833 13.0072 9.83573 12.3119 9.13452L9.69139 6.49902L7.07089 9.13527C6.37538 9.83639 5.98511 10.7839 5.98511 11.7715C5.98511 12.7591 6.37538 13.7059 7.07089 14.407Z" fill="#76808F"/>
<path d="M2.94141 3.12402L4.81641 4.99902L6.69141 3.12402L4.81641 1.24902L2.94141 3.12402Z" fill="url(#paint1_linear_205_1947)"/>
<path d="M15.6914 6.12402L16.8164 7.24902L17.9414 6.12402L16.8164 4.99902L15.6914 6.12402Z" fill="#76808F"/>
<path d="M1.44141 15.499L2.56641 16.624L3.69141 15.499L2.56641 14.374L1.44141 15.499Z" fill="url(#paint2_linear_205_1947)"/>
<defs>
<linearGradient id="paint0_linear_205_1947" x1="9.6914" y1="16.999" x2="9.6914" y2="1.99902" gradientUnits="userSpaceOnUse">
<stop stop-color="#F0B90B"/>
<stop offset="1" stop-color="#F8D33A"/>
</linearGradient>
<linearGradient id="paint1_linear_205_1947" x1="4.81641" y1="4.99902" x2="4.81641" y2="1.24902" gradientUnits="userSpaceOnUse">
<stop stop-color="#F0B90B"/>
<stop offset="1" stop-color="#F8D33A"/>
</linearGradient>
<linearGradient id="paint2_linear_205_1947" x1="2.56641" y1="16.624" x2="2.56641" y2="14.374" gradientUnits="userSpaceOnUse">
<stop stop-color="#F0B90B"/>
<stop offset="1" stop-color="#F8D33A"/>
</linearGradient>
</defs>
</svg>
