<svg width="23" height="23" viewBox="0 0 23 23" fill="none" xmlns="http://www.w3.org/2000/svg">
<path d="M8.39809 19.2907C15.3141 19.2907 19.1 13.3003 19.1 8.10935C19.1 7.94324 19.1 7.77713 19.09 7.60064C19.8254 7.05039 20.4614 6.35479 20.9681 5.56577C20.2924 5.87723 19.567 6.08486 18.8019 6.18869C19.577 5.70074 20.1732 4.93247 20.4614 4.00848C19.7359 4.46528 18.9311 4.78712 18.0666 4.96362C17.3809 4.18497 16.4071 3.7074 15.324 3.7074C13.2472 3.7074 11.558 5.47233 11.558 7.64216C11.558 7.95363 11.5977 8.24432 11.6573 8.53501C8.5372 8.37928 5.76484 6.80122 3.90667 4.42375C3.57876 5.01553 3.3999 5.69035 3.3999 6.40671C3.3999 7.76675 4.06566 8.97105 5.06928 9.67701C4.45319 9.65626 3.87686 9.47978 3.37009 9.18907C3.37009 9.19946 3.37009 9.22022 3.37009 9.24098C3.37009 11.1409 4.6718 12.7397 6.38093 13.0927C6.06295 13.1861 5.73503 13.2276 5.38725 13.2276C5.14877 13.2276 4.91028 13.2069 4.68174 13.155C5.15871 14.7227 6.54985 15.8543 8.19935 15.8854C6.90758 16.9444 5.28788 17.5673 3.52907 17.5673C3.23097 17.5673 2.92293 17.5569 2.63477 17.5154C4.29421 18.6367 6.27162 19.2907 8.39809 19.2907Z" fill="#707A8A"/>
</svg>
