<svg width="23" height="23" viewBox="0 0 23 23" fill="none" xmlns="http://www.w3.org/2000/svg">
<path d="M11.8014 2.33228C6.73924 2.33228 2.63477 6.43675 2.63477 11.4989C2.63477 16.5611 6.73924 20.6656 11.8014 20.6656C16.8636 20.6656 20.9681 16.5611 20.9681 11.4989C20.9681 6.43675 16.8538 2.33228 11.8014 2.33228ZM17.4304 15.408H16.1013C15.5932 15.408 15.4466 14.9975 14.5378 14.0887C13.7461 13.3264 13.4041 13.2189 13.2087 13.2189C12.9351 13.2189 12.8569 13.2874 12.8569 13.6684V14.8704C12.8569 15.193 12.7494 15.3884 11.8991 15.3884C10.4919 15.3884 8.9283 14.5382 7.824 12.9453C6.16266 10.6194 5.71312 8.86035 5.71312 8.50854C5.71312 8.31309 5.78154 8.13718 6.16266 8.13718H7.51128C7.84354 8.13718 7.98036 8.28377 8.1074 8.65512C8.76216 10.5607 9.86647 12.2221 10.316 12.2221C10.4822 12.2221 10.5604 12.1439 10.5604 11.7139V9.75938C10.5115 8.85057 10.0326 8.7724 10.0326 8.4499C10.0326 8.29354 10.1597 8.13718 10.3648 8.13718H12.4562C12.7396 8.13718 12.8471 8.29354 12.8471 8.62581V11.2742C12.8471 11.5576 12.9644 11.665 13.0523 11.665C13.2184 11.665 13.3651 11.5576 13.6778 11.2547C14.6355 10.1797 15.3196 8.52808 15.3196 8.52808C15.4075 8.33263 15.5639 8.15672 15.9059 8.15672H17.235C17.6356 8.15672 17.7236 8.36195 17.6356 8.64535C17.4695 9.41738 15.8472 11.7042 15.8472 11.7237C15.7007 11.9583 15.6518 12.056 15.8472 12.3198C15.9939 12.5153 16.4531 12.9159 16.7659 13.2776C17.3327 13.9225 17.7725 14.4698 17.8897 14.8412C17.9973 15.2125 17.8116 15.408 17.4304 15.408Z" fill="#707A8A"/>
</svg>
