<svg width="23" height="23" viewBox="0 0 23 23" fill="none" xmlns="http://www.w3.org/2000/svg">
<path d="M11.8014 2.33228C6.73924 2.33228 2.63477 6.43675 2.63477 11.4891C2.63477 16.5513 6.73924 20.6656 11.8014 20.6656C16.8636 20.6656 20.9681 16.5513 20.9681 11.4891C20.9681 6.43675 16.8636 2.33228 11.8014 2.33228ZM16.3164 8.08832C16.2577 8.93853 14.6844 15.2907 14.6844 15.2907C14.6844 15.2907 14.5866 15.6621 14.2445 15.6718C14.1273 15.6718 13.9709 15.6621 13.795 15.4959C13.4335 15.193 12.6126 14.6066 11.8405 14.0691C11.8112 14.0984 11.7819 14.1278 11.7428 14.1571C11.5669 14.3135 11.303 14.5382 11.0196 14.8119C10.9122 14.9096 10.7948 15.0171 10.6776 15.1344L10.6678 15.1441C10.5994 15.2125 10.5407 15.2614 10.4919 15.3005C10.1108 15.6132 10.0717 15.3493 10.0717 15.2125L10.2769 12.9746V12.9551L10.2866 12.9355C10.2964 12.9062 10.316 12.8964 10.316 12.8964C10.316 12.8964 14.313 9.3392 14.4204 8.95808C14.4302 8.93853 14.4009 8.91898 14.3521 8.93853C14.0882 9.02648 9.48534 11.9387 8.97716 12.2612C8.94784 12.2808 8.85989 12.271 8.85989 12.271L6.62197 11.538C6.62197 11.538 6.35811 11.4306 6.44606 11.1862C6.46561 11.1373 6.49493 11.0885 6.60243 11.0201C7.10083 10.6683 15.7691 7.55082 15.7691 7.55082C15.7691 7.55082 16.0134 7.47265 16.16 7.52151C16.2284 7.55082 16.2675 7.58015 16.3066 7.67787C16.3164 7.71696 16.3261 7.79514 16.3261 7.8831C16.3261 7.93195 16.3164 7.99059 16.3164 8.08832Z" fill="#707A8A"/>
</svg>
