<svg width="23" height="23" viewBox="0 0 23 23" fill="none" xmlns="http://www.w3.org/2000/svg">
<path d="M8.39809 19.2906C15.3141 19.2906 19.1 13.3002 19.1 8.10923C19.1 7.94312 19.1 7.77701 19.09 7.60051C19.8254 7.05027 20.4614 6.35467 20.9681 5.56565C20.2924 5.87711 19.567 6.08474 18.8019 6.18856C19.577 5.70061 20.1732 4.93235 20.4614 4.00835C19.7359 4.46516 18.9311 4.787 18.0666 4.96349C17.3809 4.18485 16.4071 3.70728 15.324 3.70728C13.2472 3.70728 11.558 5.47221 11.558 7.64204C11.558 7.9535 11.5977 8.2442 11.6573 8.53489C8.5372 8.37916 5.76484 6.8011 3.90667 4.42363C3.57876 5.0154 3.3999 5.69023 3.3999 6.40658C3.3999 7.76662 4.06566 8.97093 5.06928 9.67688C4.45319 9.65614 3.87686 9.47965 3.37009 9.18895C3.37009 9.19934 3.37009 9.2201 3.37009 9.24086C3.37009 11.1408 4.6718 12.7396 6.38093 13.0926C6.06295 13.186 5.73503 13.2275 5.38725 13.2275C5.14877 13.2275 4.91028 13.2068 4.68174 13.1549C5.15871 14.7226 6.54985 15.8542 8.19935 15.8853C6.90758 16.9443 5.28788 17.5672 3.52907 17.5672C3.23097 17.5672 2.92293 17.5568 2.63477 17.5153C4.29421 18.6366 6.27162 19.2906 8.39809 19.2906Z" fill="#707A8A"/>
</svg>
