<svg width="23" height="23" viewBox="0 0 23 23" fill="none" xmlns="http://www.w3.org/2000/svg">
<path d="M11.8014 2.3324C6.73924 2.3324 2.63477 6.43687 2.63477 11.4893C2.63477 16.5515 6.73924 20.6657 11.8014 20.6657C16.8636 20.6657 20.9681 16.5515 20.9681 11.4893C20.9681 6.43687 16.8636 2.3324 11.8014 2.3324ZM16.3164 8.08844C16.2577 8.93865 14.6844 15.2909 14.6844 15.2909C14.6844 15.2909 14.5866 15.6622 14.2445 15.6719C14.1273 15.6719 13.9709 15.6622 13.795 15.496C13.4335 15.1931 12.6126 14.6067 11.8405 14.0692C11.8112 14.0985 11.7819 14.1279 11.7428 14.1572C11.5669 14.3136 11.303 14.5384 11.0196 14.812C10.9122 14.9097 10.7948 15.0172 10.6776 15.1345L10.6678 15.1442C10.5994 15.2127 10.5407 15.2615 10.4919 15.3006C10.1108 15.6133 10.0717 15.3494 10.0717 15.2127L10.2769 12.9747V12.9552L10.2866 12.9357C10.2964 12.9063 10.316 12.8965 10.316 12.8965C10.316 12.8965 14.313 9.33932 14.4204 8.9582C14.4302 8.93865 14.4009 8.91911 14.3521 8.93865C14.0882 9.0266 9.48534 11.9388 8.97716 12.2614C8.94784 12.2809 8.85989 12.2711 8.85989 12.2711L6.62197 11.5381C6.62197 11.5381 6.35811 11.4307 6.44606 11.1863C6.46561 11.1374 6.49493 11.0886 6.60243 11.0202C7.10083 10.6684 15.7691 7.55094 15.7691 7.55094C15.7691 7.55094 16.0134 7.47277 16.16 7.52163C16.2284 7.55094 16.2675 7.58027 16.3066 7.67799C16.3164 7.71708 16.3261 7.79526 16.3261 7.88322C16.3261 7.93208 16.3164 7.99072 16.3164 8.08844Z" fill="#707A8A"/>
</svg>
