<svg width="23" height="23" viewBox="0 0 23 23" fill="none" xmlns="http://www.w3.org/2000/svg">
<path fill-rule="evenodd" clip-rule="evenodd" d="M18.5775 13.2845C18.2528 13.4909 17.8758 13.5116 17.5826 13.3465C17.2161 13.14 17.0066 12.6654 17.0066 11.9947V10.003C17.0066 9.03305 16.6191 8.35198 15.9699 8.16624C14.8702 7.84635 14.0429 9.17752 13.7393 9.67284L11.8018 12.7686V8.98145C11.7809 8.11464 11.4876 7.58836 10.9431 7.43359C10.587 7.33039 10.0424 7.37166 9.51882 8.15592L5.18322 15.0285C4.60724 13.945 4.30354 12.7273 4.30354 11.4993C4.30354 7.36135 7.6652 3.99731 11.8018 3.99731C15.9384 3.99731 19.3 7.36135 19.3 11.4993C19.3 11.5097 19.3 11.5097 19.3 11.5199C19.3 11.5303 19.3 11.5303 19.3 11.5406C19.3315 12.3455 19.0697 12.9749 18.5775 13.2845ZM20.9652 11.4993V11.4787V11.458C20.9338 6.42231 16.8391 2.33594 11.8018 2.33594C6.74362 2.33594 2.63843 6.44294 2.63843 11.4993C2.63843 16.5557 6.74362 20.6627 11.8018 20.6627C14.1162 20.6627 16.3364 19.7959 18.0329 18.2171C18.3681 17.9075 18.389 17.3812 18.0748 17.0407C17.7711 16.7105 17.2475 16.6796 16.9124 16.9891L16.9018 16.9994C15.53 18.279 13.6974 19.0013 11.8018 19.0013C9.59212 19.0013 7.60236 18.0313 6.22 16.5041L10.1367 10.3126V13.171C10.1367 14.5435 10.6813 14.9872 11.1316 15.1111C11.5819 15.2452 12.273 15.1523 13.0061 13.9862L15.153 10.55C15.2263 10.4364 15.2892 10.3436 15.3415 10.2611V11.9947C15.3415 13.2742 15.8651 14.2958 16.7657 14.8014C17.5826 15.2555 18.6089 15.2142 19.4467 14.6983C20.473 14.0688 21.0176 12.9027 20.9652 11.4993Z" fill="#707A8A"/>
</svg>
