<svg width="23" height="23" viewBox="0 0 23 23" fill="none" xmlns="http://www.w3.org/2000/svg">
<path fill-rule="evenodd" clip-rule="evenodd" d="M18.5774 13.2845C18.2527 13.4909 17.8757 13.5116 17.5824 13.3465C17.216 13.14 17.0065 12.6654 17.0065 11.9947V10.003C17.0065 9.03305 16.619 8.35198 15.9697 8.16624C14.8701 7.84635 14.0428 9.17752 13.7391 9.67284L11.8017 12.7686V8.98145C11.7808 8.11464 11.4875 7.58836 10.9429 7.43359C10.5869 7.33039 10.0423 7.37166 9.5187 8.15592L5.1831 15.0285C4.60712 13.945 4.30342 12.7273 4.30342 11.4993C4.30342 7.36135 7.66508 3.99731 11.8017 3.99731C15.9383 3.99731 19.2999 7.36135 19.2999 11.4993C19.2999 11.5097 19.2999 11.5097 19.2999 11.5199C19.2999 11.5303 19.2999 11.5303 19.2999 11.5406C19.3313 12.3455 19.0695 12.9749 18.5774 13.2845ZM20.965 11.4993V11.4787V11.458C20.9337 6.42231 16.8389 2.33594 11.8017 2.33594C6.7435 2.33594 2.63831 6.44294 2.63831 11.4993C2.63831 16.5557 6.7435 20.6627 11.8017 20.6627C14.1161 20.6627 16.3362 19.7959 18.0328 18.2171C18.3679 17.9075 18.3888 17.3812 18.0747 17.0407C17.771 16.7105 17.2474 16.6796 16.9123 16.9891L16.9017 16.9994C15.5298 18.279 13.6972 19.0013 11.8017 19.0013C9.592 19.0013 7.60224 18.0313 6.21988 16.5041L10.1365 10.3126V13.171C10.1365 14.5435 10.6811 14.9872 11.1315 15.1111C11.5818 15.2452 12.2729 15.1523 13.006 13.9862L15.1529 10.55C15.2261 10.4364 15.289 10.3436 15.3414 10.2611V11.9947C15.3414 13.2742 15.865 14.2958 16.7656 14.8014C17.5824 15.2555 18.6087 15.2142 19.4466 14.6983C20.4729 14.0688 21.0175 12.9027 20.965 11.4993Z" fill="#707A8A"/>
</svg>
