<svg width="23" height="23" viewBox="0 0 23 23" fill="none" xmlns="http://www.w3.org/2000/svg">
<path fill-rule="evenodd" clip-rule="evenodd" d="M11.8015 7.26575C9.46325 7.26575 7.56812 9.16088 7.56812 11.4992C7.56812 13.8375 9.46325 15.7326 11.8015 15.7326C14.1398 15.7326 16.035 13.8375 16.035 11.4992C16.035 9.16088 14.1398 7.26575 11.8015 7.26575ZM11.8015 14.2524C10.2835 14.2524 9.04839 13.0172 9.04839 11.4992C9.04839 9.98115 10.2835 8.74603 11.8015 8.74603C13.3195 8.74603 14.5547 9.98115 14.5547 11.4992C14.5547 13.0172 13.3195 14.2524 11.8015 14.2524Z" fill="#707A8A"/>
<path d="M17.1947 7.09596C17.1947 7.64272 16.7515 8.08596 16.2047 8.08596C15.658 8.08596 15.2147 7.64272 15.2147 7.09596C15.2147 6.54919 15.658 6.10596 16.2047 6.10596C16.7515 6.10596 17.1947 6.54919 17.1947 7.09596Z" fill="#707A8A"/>
<path fill-rule="evenodd" clip-rule="evenodd" d="M11.8014 3.24902C9.55739 3.24902 9.28396 3.25846 8.39768 3.29617C7.52082 3.34331 6.91739 3.47531 6.39882 3.68274C5.85196 3.89017 5.39939 4.17302 4.93739 4.63502C4.47539 5.09702 4.19254 5.54959 3.9851 6.09646C3.77768 6.61502 3.64568 7.21846 3.59854 8.09531C3.56082 8.98159 3.55139 9.25502 3.55139 11.499C3.55139 13.743 3.56082 14.0165 3.59854 14.9027C3.63625 15.7796 3.77768 16.383 3.9851 16.9016C4.19254 17.4485 4.47539 17.901 4.93739 18.363C5.39939 18.825 5.85196 19.1079 6.39882 19.3153C6.92682 19.5227 7.52082 19.6547 8.39768 19.7019C9.27454 19.7396 9.55739 19.749 11.8014 19.749C14.0454 19.749 14.3188 19.7396 15.2051 19.7019C16.082 19.6641 16.6854 19.5227 17.2039 19.3153C17.7508 19.1079 18.2034 18.825 18.6654 18.363C19.1274 17.901 19.4103 17.4485 19.6177 16.9016C19.8251 16.3736 19.9571 15.7796 20.0043 14.9027C20.042 14.0259 20.0514 13.743 20.0514 11.499C20.0514 9.25502 20.042 8.98159 20.0043 8.09531C19.9665 7.21846 19.8251 6.61502 19.6177 6.09646C19.4103 5.54959 19.1274 5.09702 18.6654 4.63502C18.2034 4.17302 17.7508 3.89017 17.2039 3.68274C16.676 3.47531 16.082 3.34331 15.2051 3.29617C14.3188 3.25846 14.0454 3.24902 11.8014 3.24902ZM11.8014 4.73874C14.0077 4.73874 14.2623 4.74817 15.1391 4.78588C15.9405 4.82359 16.3837 4.95559 16.6665 5.06874C17.0531 5.21959 17.3265 5.39874 17.6188 5.68159C17.9111 5.97388 18.0903 6.24731 18.2317 6.63388C18.3448 6.92617 18.4768 7.35988 18.5145 8.16131C18.5523 9.02874 18.5617 9.29274 18.5617 11.499C18.5617 13.7053 18.5523 13.9599 18.5145 14.8367C18.4768 15.6381 18.3448 16.0813 18.2317 16.3641C18.0808 16.7507 17.9017 17.0241 17.6188 17.3165C17.3265 17.6087 17.0531 17.7879 16.6665 17.9293C16.3743 18.0425 15.9405 18.1745 15.1391 18.2121C14.2717 18.2499 14.0077 18.2593 11.8014 18.2593C9.5951 18.2593 9.34054 18.2499 8.46368 18.2121C7.66225 18.1745 7.2191 18.0425 6.93625 17.9293C6.54968 17.7785 6.27625 17.5993 5.98396 17.3165C5.69168 17.0241 5.51254 16.7507 5.3711 16.3641C5.25796 16.0719 5.12596 15.6381 5.08825 14.8367C5.05054 13.9693 5.0411 13.7053 5.0411 11.499C5.0411 9.29274 5.05054 9.03817 5.08825 8.16131C5.12596 7.35988 5.25796 6.91674 5.3711 6.63388C5.52196 6.24731 5.7011 5.97388 5.98396 5.68159C6.27625 5.38931 6.54968 5.21017 6.93625 5.06874C7.22854 4.95559 7.66225 4.82359 8.46368 4.78588C9.34054 4.74817 9.5951 4.73874 11.8014 4.73874Z" fill="#707A8A"/>
</svg>
