<svg width="23" height="23" viewBox="0 0 23 23" fill="none" xmlns="http://www.w3.org/2000/svg">
<path d="M9.70384 11.4937C10.2313 11.4937 10.6611 11.9235 10.6611 12.4509C10.6611 12.9784 10.2313 13.4082 9.70384 13.4082C9.17637 13.4082 8.74658 12.9784 8.74658 12.4509C8.74658 11.9235 9.17637 11.4937 9.70384 11.4937Z" fill="#707A8A"/>
<path d="M11.8039 15.1856C12.429 15.1856 13.3082 15.0391 13.7184 14.6288C13.8161 14.5312 13.9724 14.5312 14.07 14.6191C14.1677 14.7167 14.1677 14.873 14.07 14.9707C13.4156 15.6251 12.1751 15.674 11.8039 15.674C11.4327 15.674 10.1921 15.6251 9.53774 14.9804C9.44006 14.8828 9.44006 14.7265 9.53774 14.6288C9.63542 14.5312 9.79171 14.5312 9.88938 14.6288C10.2997 15.0391 11.1788 15.1856 11.8039 15.1856Z" fill="#707A8A"/>
<path d="M12.9468 12.4608C12.9468 11.9333 13.3766 11.5035 13.9041 11.5035C14.4217 11.5035 14.8515 11.9333 14.8613 12.4608C14.8613 12.9883 14.4315 13.418 13.9041 13.418C13.3766 13.418 12.9468 12.9883 12.9468 12.4608Z" fill="#707A8A"/>
<path fill-rule="evenodd" clip-rule="evenodd" d="M11.8041 2.34131C6.74436 2.34131 2.64185 6.44381 2.64185 11.5036C2.64185 16.5633 6.74436 20.6659 11.8041 20.6659C16.8638 20.6659 20.9664 16.5731 20.9664 11.5036C20.9567 6.44381 16.8638 2.34131 11.8041 2.34131ZM17.1178 12.7245C17.1374 12.8516 17.1472 12.9883 17.1472 13.125C17.1472 15.186 14.754 16.8466 11.8041 16.8466C8.85421 16.8466 6.46109 15.186 6.46109 13.125C6.46109 12.9883 6.47085 12.8516 6.49039 12.7245C6.02153 12.5195 5.69919 12.0506 5.69919 11.5036C5.69919 10.771 6.29504 10.1654 7.03739 10.1654C7.3988 10.1654 7.72114 10.3021 7.96534 10.5365C8.89328 9.86259 10.1729 9.44255 11.599 9.40347C11.599 9.38394 12.273 6.20939 12.273 6.20939C12.273 6.15077 12.312 6.09217 12.3609 6.06287C12.4097 6.0238 12.4781 6.01403 12.5465 6.0238L14.7637 6.50242C14.92 6.18985 15.2424 5.96519 15.6136 5.96519C16.141 5.96519 16.5709 6.3852 16.5709 6.92244C16.5709 7.45967 16.141 7.87969 15.6136 7.87969C15.1057 7.87969 14.6856 7.47921 14.6661 6.97127L12.6735 6.54149L12.0678 9.40347C13.4745 9.45231 14.7345 9.88211 15.6429 10.5365C15.8871 10.3021 16.2094 10.1556 16.5709 10.1556C17.3132 10.1556 17.909 10.7515 17.909 11.4938C17.909 12.0506 17.5769 12.5096 17.1178 12.7245Z" fill="#707A8A"/>
</svg>
