<svg width="23" height="23" viewBox="0 0 23 23" fill="none" xmlns="http://www.w3.org/2000/svg">
<path d="M11.8014 2.3324C6.73924 2.3324 2.63477 6.43687 2.63477 11.4991C2.63477 16.5613 6.73924 20.6657 11.8014 20.6657C16.8636 20.6657 20.9681 16.5613 20.9681 11.4991C20.9681 6.43687 16.8538 2.3324 11.8014 2.3324ZM17.4304 15.4081H16.1013C15.5932 15.4081 15.4466 14.9976 14.5378 14.0888C13.7461 13.3265 13.4041 13.219 13.2087 13.219C12.9351 13.219 12.8569 13.2875 12.8569 13.6685V14.8706C12.8569 15.1931 12.7494 15.3886 11.8991 15.3886C10.4919 15.3886 8.9283 14.5384 7.824 12.9454C6.16266 10.6195 5.71312 8.86048 5.71312 8.50866C5.71312 8.31321 5.78154 8.1373 6.16266 8.1373H7.51128C7.84354 8.1373 7.98036 8.28389 8.1074 8.65524C8.76216 10.5609 9.86647 12.2222 10.316 12.2222C10.4822 12.2222 10.5604 12.144 10.5604 11.714V9.75951C10.5115 8.85069 10.0326 8.77252 10.0326 8.45002C10.0326 8.29366 10.1597 8.1373 10.3648 8.1373H12.4562C12.7396 8.1373 12.8471 8.29366 12.8471 8.62593V11.2743C12.8471 11.5577 12.9644 11.6652 13.0523 11.6652C13.2184 11.6652 13.3651 11.5577 13.6778 11.2548C14.6355 10.1798 15.3196 8.5282 15.3196 8.5282C15.4075 8.33275 15.5639 8.15684 15.9059 8.15684H17.235C17.6356 8.15684 17.7236 8.36207 17.6356 8.64547C17.4695 9.41751 15.8472 11.7043 15.8472 11.7238C15.7007 11.9584 15.6518 12.0561 15.8472 12.3199C15.9939 12.5154 16.4531 12.916 16.7659 13.2777C17.3327 13.9226 17.7725 14.4699 17.8897 14.8413C17.9973 15.2127 17.8116 15.4081 17.4304 15.4081Z" fill="#707A8A"/>
</svg>
