<svg width="23" height="23" viewBox="0 0 23 23" fill="none" xmlns="http://www.w3.org/2000/svg">
<path d="M8.88525 11.9398C8.88525 12.5707 9.34791 13.0855 9.91519 13.0855C10.4879 13.0855 10.9451 12.5705 10.9451 11.9398C10.9566 11.309 10.4876 10.7942 9.91519 10.7942C9.33665 10.7942 8.88525 11.3092 8.88525 11.9398Z" fill="#707A8A"/>
<path d="M12.6868 11.9398C12.6868 12.5707 13.1506 13.0855 13.7172 13.0855C14.2957 13.0855 14.7472 12.5705 14.7472 11.9398C14.7587 11.309 14.2896 10.7942 13.7172 10.7942C13.1388 10.7942 12.6868 11.3092 12.6868 11.9398Z" fill="#707A8A"/>
<path fill-rule="evenodd" clip-rule="evenodd" d="M20.9681 11.4989C20.9681 16.5615 16.864 20.6656 11.8014 20.6656C6.73882 20.6656 2.63477 16.5615 2.63477 11.4989C2.63477 6.43633 6.73882 2.33228 11.8014 2.33228C16.864 2.33228 20.9681 6.43633 20.9681 11.4989ZM13.4278 7.17208C14.2553 7.31082 15.048 7.55989 15.7943 7.90115H15.7964C17.0922 9.79321 17.7358 11.934 17.4867 14.3989C16.4966 15.1222 15.5303 15.5618 14.5872 15.8512C14.3554 15.5388 14.1474 15.203 13.9681 14.8502C14.3094 14.7228 14.634 14.5666 14.9458 14.3815C14.8845 14.3378 14.8258 14.2907 14.7657 14.2424C14.7468 14.2272 14.7277 14.2118 14.7083 14.1965C12.8451 15.0586 10.8021 15.0586 8.91577 14.1965C8.83957 14.2599 8.7589 14.3239 8.67823 14.3815C8.99061 14.5666 9.31478 14.7228 9.65605 14.8502C9.47677 15.2031 9.26868 15.5388 9.0369 15.8512C8.09321 15.5619 7.13268 15.1222 6.13738 14.3989C5.93492 12.2696 6.33996 10.1115 7.83857 7.90115C8.57975 7.55944 9.3724 7.31101 10.2056 7.17208C10.3029 7.35136 10.4252 7.59466 10.5059 7.78546C11.3737 7.65804 12.2476 7.65804 13.1275 7.78546C13.2082 7.59466 13.3235 7.35136 13.4278 7.17208Z" fill="#707A8A"/>
</svg>
