<svg width="23" height="23" viewBox="0 0 23 23" fill="none" xmlns="http://www.w3.org/2000/svg">
<path d="M8.88513 11.9398C8.88513 12.5707 9.34779 13.0855 9.91507 13.0855C10.4878 13.0855 10.945 12.5705 10.945 11.9398C10.9565 11.309 10.4875 10.7942 9.91507 10.7942C9.33653 10.7942 8.88513 11.3092 8.88513 11.9398Z" fill="#707A8A"/>
<path d="M12.6866 11.9398C12.6866 12.5707 13.1505 13.0855 13.7171 13.0855C14.2956 13.0855 14.747 12.5705 14.747 11.9398C14.7586 11.309 14.2894 10.7942 13.7171 10.7942C13.1387 10.7942 12.6866 11.3092 12.6866 11.9398Z" fill="#707A8A"/>
<path fill-rule="evenodd" clip-rule="evenodd" d="M20.9681 11.4991C20.9681 16.5616 16.864 20.6657 11.8014 20.6657C6.73882 20.6657 2.63477 16.5616 2.63477 11.4991C2.63477 6.43645 6.73882 2.3324 11.8014 2.3324C16.864 2.3324 20.9681 6.43645 20.9681 11.4991ZM13.4278 7.1722C14.2553 7.31094 15.048 7.56001 15.7943 7.90128H15.7964C17.0922 9.79333 17.7358 11.9341 17.4867 14.399C16.4966 15.1223 15.5303 15.5619 14.5872 15.8513C14.3554 15.5389 14.1474 15.2031 13.9681 14.8503C14.3094 14.7229 14.634 14.5667 14.9458 14.3816C14.8845 14.3379 14.8258 14.2908 14.7657 14.2426C14.7468 14.2273 14.7277 14.2119 14.7083 14.1966C12.8451 15.0588 10.8021 15.0588 8.91577 14.1966C8.83957 14.26 8.7589 14.324 8.67823 14.3816C8.99061 14.5667 9.31478 14.7229 9.65605 14.8503C9.47677 15.2032 9.26868 15.5389 9.0369 15.8513C8.09321 15.562 7.13268 15.1223 6.13738 14.399C5.93492 12.2697 6.33996 10.1116 7.83857 7.90128C8.57975 7.55956 9.3724 7.31113 10.2056 7.1722C10.3029 7.35148 10.4252 7.59478 10.5059 7.78558C11.3737 7.65817 12.2476 7.65817 13.1275 7.78558C13.2082 7.59478 13.3235 7.35148 13.4278 7.1722Z" fill="#707A8A"/>
</svg>
