<svg width="23" height="23" viewBox="0 0 23 23" fill="none" xmlns="http://www.w3.org/2000/svg">
<path fill-rule="evenodd" clip-rule="evenodd" d="M11.8015 7.26562C9.46325 7.26562 7.56812 9.16076 7.56812 11.499C7.56812 13.8374 9.46325 15.7325 11.8015 15.7325C14.1398 15.7325 16.035 13.8374 16.035 11.499C16.035 9.16076 14.1398 7.26562 11.8015 7.26562ZM11.8015 14.2522C10.2835 14.2522 9.04839 13.017 9.04839 11.499C9.04839 9.98103 10.2835 8.7459 11.8015 8.7459C13.3195 8.7459 14.5547 9.98103 14.5547 11.499C14.5547 13.017 13.3195 14.2522 11.8015 14.2522Z" fill="#707A8A"/>
<path d="M17.1948 7.09596C17.1948 7.64272 16.7516 8.08596 16.2048 8.08596C15.6581 8.08596 15.2148 7.64272 15.2148 7.09596C15.2148 6.54919 15.6581 6.10596 16.2048 6.10596C16.7516 6.10596 17.1948 6.54919 17.1948 7.09596Z" fill="#707A8A"/>
<path fill-rule="evenodd" clip-rule="evenodd" d="M11.8015 3.24902C9.55751 3.24902 9.28408 3.25846 8.3978 3.29617C7.52095 3.34331 6.91751 3.47531 6.39895 3.68274C5.85208 3.89017 5.39951 4.17302 4.93751 4.63502C4.47551 5.09702 4.19266 5.54959 3.98523 6.09646C3.7778 6.61502 3.6458 7.21846 3.59866 8.09531C3.56095 8.98159 3.55151 9.25502 3.55151 11.499C3.55151 13.743 3.56095 14.0165 3.59866 14.9027C3.63637 15.7796 3.7778 16.383 3.98523 16.9016C4.19266 17.4485 4.47551 17.901 4.93751 18.363C5.39951 18.825 5.85208 19.1079 6.39895 19.3153C6.92695 19.5227 7.52095 19.6547 8.3978 19.7019C9.27466 19.7396 9.55751 19.749 11.8015 19.749C14.0455 19.749 14.319 19.7396 15.2052 19.7019C16.0821 19.6641 16.6855 19.5227 17.2041 19.3153C17.751 19.1079 18.2035 18.825 18.6655 18.363C19.1275 17.901 19.4104 17.4485 19.6178 16.9016C19.8252 16.3736 19.9572 15.7796 20.0044 14.9027C20.0421 14.0259 20.0515 13.743 20.0515 11.499C20.0515 9.25502 20.0421 8.98159 20.0044 8.09531C19.9666 7.21846 19.8252 6.61502 19.6178 6.09646C19.4104 5.54959 19.1275 5.09702 18.6655 4.63502C18.2035 4.17302 17.751 3.89017 17.2041 3.68274C16.6761 3.47531 16.0821 3.34331 15.2052 3.29617C14.319 3.25846 14.0455 3.24902 11.8015 3.24902ZM11.8015 4.73874C14.0078 4.73874 14.2624 4.74817 15.1392 4.78588C15.9406 4.82359 16.3838 4.95559 16.6666 5.06874C17.0532 5.21959 17.3266 5.39874 17.619 5.68159C17.9112 5.97388 18.0904 6.24731 18.2318 6.63388C18.345 6.92617 18.477 7.35988 18.5146 8.16131C18.5524 9.02874 18.5618 9.29274 18.5618 11.499C18.5618 13.7053 18.5524 13.9599 18.5146 14.8367C18.477 15.6381 18.345 16.0813 18.2318 16.3641C18.081 16.7507 17.9018 17.0241 17.619 17.3165C17.3266 17.6087 17.0532 17.7879 16.6666 17.9293C16.3744 18.0425 15.9406 18.1745 15.1392 18.2121C14.2718 18.2499 14.0078 18.2593 11.8015 18.2593C9.59523 18.2593 9.34066 18.2499 8.4638 18.2121C7.66237 18.1745 7.21923 18.0425 6.93637 17.9293C6.5498 17.7785 6.27637 17.5993 5.98408 17.3165C5.6918 17.0241 5.51266 16.7507 5.37123 16.3641C5.25808 16.0719 5.12608 15.6381 5.08837 14.8367C5.05066 13.9693 5.04123 13.7053 5.04123 11.499C5.04123 9.29274 5.05066 9.03817 5.08837 8.16131C5.12608 7.35988 5.25808 6.91674 5.37123 6.63388C5.52208 6.24731 5.70123 5.97388 5.98408 5.68159C6.27637 5.38931 6.5498 5.21017 6.93637 5.06874C7.22866 4.95559 7.66237 4.82359 8.4638 4.78588C9.34066 4.74817 9.59523 4.73874 11.8015 4.73874Z" fill="#707A8A"/>
</svg>
