<svg width="23" height="23" viewBox="0 0 23 23" fill="none" xmlns="http://www.w3.org/2000/svg">
<path d="M9.70384 11.4937C10.2313 11.4937 10.6611 11.9235 10.6611 12.4509C10.6611 12.9784 10.2313 13.4082 9.70384 13.4082C9.17637 13.4082 8.74658 12.9784 8.74658 12.4509C8.74658 11.9235 9.17637 11.4937 9.70384 11.4937Z" fill="#707A8A"/>
<path d="M11.804 15.1855C12.4291 15.1855 13.3083 15.039 13.7185 14.6287C13.8162 14.5311 13.9725 14.5311 14.0701 14.619C14.1679 14.7166 14.1679 14.8729 14.0701 14.9706C13.4157 15.625 12.1752 15.6739 11.804 15.6739C11.4328 15.6739 10.1923 15.625 9.53786 14.9803C9.44018 14.8827 9.44018 14.7264 9.53786 14.6287C9.63554 14.5311 9.79183 14.5311 9.8895 14.6287C10.2998 15.039 11.1789 15.1855 11.804 15.1855Z" fill="#707A8A"/>
<path d="M12.9468 12.4607C12.9468 11.9332 13.3766 11.5034 13.9041 11.5034C14.4217 11.5034 14.8515 11.9332 14.8613 12.4607C14.8613 12.9881 14.4315 13.4179 13.9041 13.4179C13.3766 13.4179 12.9468 12.9881 12.9468 12.4607Z" fill="#707A8A"/>
<path fill-rule="evenodd" clip-rule="evenodd" d="M11.8043 2.34131C6.7446 2.34131 2.64209 6.44381 2.64209 11.5036C2.64209 16.5633 6.7446 20.6659 11.8043 20.6659C16.8641 20.6659 20.9666 16.5731 20.9666 11.5036C20.9569 6.44381 16.8641 2.34131 11.8043 2.34131ZM17.1181 12.7245C17.1376 12.8516 17.1474 12.9883 17.1474 13.125C17.1474 15.186 14.7543 16.8466 11.8043 16.8466C8.85446 16.8466 6.46134 15.186 6.46134 13.125C6.46134 12.9883 6.4711 12.8516 6.49063 12.7245C6.02178 12.5195 5.69944 12.0506 5.69944 11.5036C5.69944 10.771 6.29528 10.1654 7.03763 10.1654C7.39905 10.1654 7.72139 10.3021 7.96559 10.5365C8.89353 9.86259 10.1731 9.44255 11.5992 9.40347C11.5992 9.38394 12.2732 6.20939 12.2732 6.20939C12.2732 6.15077 12.3123 6.09217 12.3611 6.06287C12.41 6.0238 12.4784 6.01403 12.5468 6.0238L14.764 6.50242C14.9203 6.18985 15.2427 5.96519 15.6138 5.96519C16.1413 5.96519 16.5711 6.3852 16.5711 6.92244C16.5711 7.45967 16.1413 7.87969 15.6138 7.87969C15.1059 7.87969 14.6859 7.47921 14.6664 6.97127L12.6737 6.54149L12.0681 9.40347C13.4747 9.45231 14.7347 9.88211 15.6432 10.5365C15.8874 10.3021 16.2097 10.1556 16.5711 10.1556C17.3134 10.1556 17.9093 10.7515 17.9093 11.4938C17.9093 12.0506 17.5771 12.5096 17.1181 12.7245Z" fill="#707A8A"/>
</svg>
