<svg width="23" height="23" viewBox="0 0 23 23" fill="none" xmlns="http://www.w3.org/2000/svg">
<path d="M21.479 6.86701C21.2478 6.04349 20.5649 5.38677 19.6949 5.16786C18.1201 4.77173 11.8098 4.77173 11.8098 4.77173C11.8098 4.77173 5.48835 4.77173 3.91351 5.16786C3.0435 5.39719 2.37171 6.04349 2.12943 6.86701C1.71094 8.3681 1.71094 11.4954 1.71094 11.4954C1.71094 11.4954 1.71094 14.6227 2.12943 16.1238C2.3607 16.9577 3.0435 17.604 3.91351 17.8229C5.48835 18.219 11.7987 18.219 11.7987 18.219C11.7987 18.219 18.1091 18.219 19.6839 17.8229C20.5429 17.604 21.2368 16.9577 21.4681 16.1238C21.8865 14.6227 21.8865 11.4954 21.8865 11.4954C21.8865 11.4954 21.8975 8.3681 21.479 6.86701ZM9.73932 14.3412V8.65998L15.0144 11.4954L9.73932 14.3412Z" fill="#707A8A"/>
</svg>
