<svg width="25" height="25" viewBox="0 0 25 25" fill="none" xmlns="http://www.w3.org/2000/svg">
<path fill-rule="evenodd" clip-rule="evenodd" d="M15.8323 20.9018C18.8332 19.7472 21.0593 17.0312 21.5153 13.7491H17.5734C17.4264 16.6093 16.7807 19.1371 15.8323 20.9018ZM15.0746 13.7491C14.8968 17.8509 13.8572 20.9991 12.6014 20.9991C11.3456 20.9991 10.306 17.8509 10.1282 13.7491H15.0746ZM15.0746 11.2491H10.1282C10.306 7.14729 11.3456 3.99908 12.6014 3.99908C13.8572 3.99908 14.8968 7.14729 15.0746 11.2491ZM17.5734 11.2491H21.5153C21.0593 7.96694 18.8332 5.25099 15.8323 4.09639C16.7807 5.86106 17.4264 8.38887 17.5734 11.2491ZM7.63722 11.2491C7.78438 8.38682 8.43084 5.85744 9.38038 4.09261C6.37447 5.24506 4.14405 7.96335 3.6875 11.2491H7.63722ZM7.63722 13.7491H3.6875C4.14405 17.0348 6.37447 19.7531 9.38038 20.9056C8.43084 19.1407 7.78438 16.6114 7.63722 13.7491Z" fill="#1E2329"/>
</svg>
