<svg width="25" height="25" viewBox="0 0 25 25" fill="none" xmlns="http://www.w3.org/2000/svg">
<path fill-rule="evenodd" clip-rule="evenodd" d="M15.8321 20.9018C18.833 19.7472 21.0591 17.0312 21.5151 13.7491H17.5732C17.4262 16.6093 16.7805 19.1371 15.8321 20.9018ZM15.0744 13.7491C14.8966 17.8509 13.857 20.9991 12.6012 20.9991C11.3454 20.9991 10.3059 17.8509 10.1281 13.7491H15.0744ZM15.0744 11.2491H10.1281C10.3059 7.14729 11.3454 3.99908 12.6012 3.99908C13.857 3.99908 14.8966 7.14729 15.0744 11.2491ZM17.5732 11.2491H21.5151C21.0591 7.96694 18.833 5.25099 15.8321 4.09639C16.7805 5.86106 17.4262 8.38887 17.5732 11.2491ZM7.6371 11.2491C7.78426 8.38682 8.43072 5.85744 9.38026 4.09261C6.37435 5.24506 4.14393 7.96335 3.68738 11.2491H7.6371ZM7.6371 13.7491H3.68738C4.14393 17.0348 6.37435 19.7531 9.38026 20.9056C8.43072 19.1407 7.78426 16.6114 7.6371 13.7491Z" fill="#1E2329"/>
</svg>
