<svg width="25" height="25" viewBox="0 0 25 25" fill="none" xmlns="http://www.w3.org/2000/svg">
<path fill-rule="evenodd" clip-rule="evenodd" d="M11.9014 6.49908C14.6628 6.49908 16.9014 8.73766 16.9014 11.4991C16.9014 14.2605 14.6628 16.4991 11.9014 16.4991C9.13994 16.4991 6.90137 14.2605 6.90137 11.4991C6.90137 8.73766 9.13995 6.49908 11.9014 6.49908ZM11.9014 3.49908C16.3197 3.49908 19.9014 7.0808 19.9014 11.4991C19.9014 12.8898 19.5465 14.1976 18.9224 15.337L21.9929 18.4077L20.402 19.9986L18.8111 21.5895L15.741 18.5192C14.6013 19.1439 13.2928 19.4991 11.9014 19.4991C7.48309 19.4991 3.90137 15.9174 3.90137 11.4991C3.90137 7.0808 7.48309 3.49908 11.9014 3.49908Z" fill="#1E2329"/>
</svg>
