<svg width="120" height="25" viewBox="0 0 120 25" fill="none" xmlns="http://www.w3.org/2000/svg">
<path d="M6.01541 12.4991L3.32141 15.1941L0.60141 12.4991L3.32041 9.78008L6.01541 12.4991ZM12.6014 5.91308L17.2414 10.5531L19.9614 7.83508L12.6014 0.499084L5.24141 7.85908L7.96141 10.5771L12.6014 5.91308ZM21.8824 9.78008L19.1874 12.4991L21.9064 15.2181L24.6244 12.4991L21.8824 9.78008ZM12.6014 19.0851L7.96141 14.4211L5.24141 17.1401L12.6014 24.4991L19.9614 17.1391L17.2414 14.4211L12.6014 19.0851ZM12.6014 15.1951L15.3204 12.4751L12.6014 9.78109L9.88241 12.4991L12.6014 15.1941V15.1951ZM41.1954 15.4751V15.4291C41.1954 13.6711 40.2574 12.7801 38.7344 12.1941C39.6714 11.6791 40.4684 10.8341 40.4684 9.35808V9.31208C40.4684 7.24908 38.8044 5.91308 36.1324 5.91308H30.0154V19.0621H36.2734C39.2494 19.0851 41.1954 17.8661 41.1954 15.4761V15.4751ZM37.5854 9.85108C37.5854 10.8351 36.7884 11.2331 35.4994 11.2331H32.8284V8.44408H35.6874C36.9064 8.44408 37.5854 8.93608 37.5854 9.80408V9.85108ZM38.3124 15.1011C38.3124 16.0851 37.5394 16.5311 36.2724 16.5311H32.8284V13.6471H36.1794C37.6564 13.6471 38.3124 14.1871 38.3124 15.0771V15.1011ZM47.2654 19.0851V5.91308H44.3594V19.0621H47.2654V19.0851ZM62.8284 19.0851V5.91308H59.9684V14.0231L53.8044 5.91308H51.1324V19.0621H53.9924V10.7181L60.3674 19.0851H62.8274H62.8284ZM78.8584 19.0851L73.2114 5.84308H70.5404L64.8914 19.0851H67.8684L69.0634 16.1321H74.6184L75.8134 19.0851H78.8604H78.8584ZM73.5854 13.5771H70.0934L71.8514 9.31208L73.5854 13.5771ZM92.6644 19.0851V5.91308H89.8044V14.0231L83.6404 5.91308H80.9684V19.0621H83.8284V10.7181L90.2034 19.0851H92.6634H92.6644ZM107.593 16.9521L105.742 15.1011C104.71 16.0381 103.796 16.6471 102.273 16.6471C100.023 16.6471 98.4534 14.7721 98.4534 12.5221V12.4521C98.4534 10.2021 100.046 8.35108 102.273 8.35108C103.585 8.35108 104.617 8.91308 105.648 9.82708L107.499 7.69408C106.281 6.49908 104.804 5.65508 102.32 5.65508C98.2894 5.65508 95.4534 8.72508 95.4534 12.4521V12.4991C95.4534 16.2721 98.3354 19.2721 102.203 19.2721C104.734 19.2961 106.234 18.4051 107.593 16.9521ZM119.945 19.0851V16.5071H112.796V13.7411H119.007V11.1631H112.796V8.49108H119.851V5.91308H109.937V19.0621H119.945V19.0851Z" fill="#F0B90B"/>
</svg>
