<svg width="17" height="18" viewBox="0 0 17 18" fill="none" xmlns="http://www.w3.org/2000/svg">
<path fill-rule="evenodd" clip-rule="evenodd" d="M7.38491 3.69409C8.60049 3.69409 9.76628 4.17698 10.6258 5.03652C11.4854 5.89606 11.9682 7.06185 11.9682 8.27743C11.9682 9.493 11.4854 10.6588 10.6258 11.5183C9.76628 12.3779 8.60049 12.8608 7.38491 12.8608C6.16934 12.8608 5.00355 12.3779 4.14401 11.5183C3.28447 10.6588 2.80158 9.493 2.80158 8.27743C2.80158 7.06185 3.28447 5.89606 4.14401 5.03652C5.00355 4.17698 6.16934 3.69409 7.38491 3.69409ZM7.38491 0.944092C8.65788 0.943812 9.909 1.2749 11.0152 1.90479C12.1214 2.53468 13.0446 3.44167 13.694 4.53655C14.3433 5.63144 14.6965 6.8765 14.7187 8.14927C14.741 9.42204 14.4315 10.6787 13.8208 11.7956L16.635 14.6098L15.1775 16.0682L13.7191 17.5266L10.9049 14.7124C9.92434 15.2483 8.83427 15.5531 7.71794 15.6033C6.60161 15.6536 5.48856 15.4481 4.46379 15.0025C3.43902 14.5569 2.52963 13.883 1.80508 13.0323C1.08053 12.1815 0.55999 11.1765 0.283204 10.0938C0.00641757 9.0112 -0.0192896 7.87962 0.208046 6.78553C0.435382 5.69144 0.909747 4.66378 1.59491 3.78102C2.28008 2.89826 3.15792 2.18376 4.1614 1.69208C5.16488 1.20041 6.26746 0.944565 7.38491 0.944092Z" fill="#B7BDC6"/>
</svg>
